<svg width="387" height="300" viewBox="0 0 387 300" fill="none" xmlns="http://www.w3.org/2000/svg">
<g clip-path="url(#clip0_148_3)">
<path d="M278.838 55.5433H250.528V10.4465L278.838 19.4659V55.5433Z" fill="#2F2E41"/>
<path d="M283.863 284.513L278.021 284.651L274.765 258.45L283.386 258.246L283.863 284.513Z" fill="#A0616A"/>
<path d="M263.82 296.681C263.82 297.666 264.52 298.464 265.384 298.464H276.98C276.98 298.464 278.121 293.885 282.774 291.915L283.095 298.464H289.077L288.353 287.932C288.353 287.932 289.953 282.298 286.629 279.417C283.306 276.537 285.998 276.938 285.998 276.938L284.691 270.42L275.651 271.481L275.584 281.713L271.198 291.87L264.763 295.043C264.191 295.326 263.82 295.969 263.82 296.68L263.82 296.68L263.82 296.681Z" fill="#2F2E41"/>
<path d="M253.922 284.513L248.08 284.651L244.823 258.45L253.445 258.246L253.922 284.513Z" fill="#A0616A"/>
<path d="M233.878 296.681C233.878 297.666 234.579 298.464 235.443 298.464H247.039C247.039 298.464 248.18 293.885 252.833 291.915L253.154 298.464H259.136L258.411 287.932C258.411 287.932 260.011 282.298 256.688 279.417C253.365 276.537 256.056 276.938 256.056 276.938L254.749 270.42L245.709 271.481L245.643 281.713L241.256 291.87L234.822 295.043C234.249 295.326 233.878 295.969 233.878 296.68L233.878 296.68L233.878 296.681Z" fill="#2F2E41"/>
<path d="M280.645 104.849L243.3 127.097L234.867 161.37L239.084 267.198H257.576L261.671 165.279L269.869 267.198H288.65L293.401 152.747C294.709 144.429 293.677 135.912 290.418 128.146L280.645 104.849V104.849V104.849Z" fill="#2F2E41"/>
<path d="M272.212 36.9033L256.551 35.7007L252.335 44.1188L240.288 47.1252L237.277 84.4052C243.235 99.8574 246.975 114.624 243.3 127.097L289.077 124.692L281.434 104.061C281.434 104.061 281.247 96.431 285.463 86.2091C289.68 75.9871 283.054 49.5304 283.054 49.5304L273.417 47.1252L272.212 36.9033H272.212V36.9033Z" fill="#3B50A2"/>
<path d="M166.765 51.4051C168.29 51.4523 169.699 51.1518 170.807 50.6133L185.306 51.9787L185.755 45.0727L170.999 44.4312C169.926 43.8253 168.538 43.4382 167.014 43.3911C163.53 43.2833 160.65 44.99 160.582 47.203C160.513 49.416 163.281 51.2974 166.765 51.4051H166.765Z" fill="#A0616A"/>
<path d="M252.528 72.4877C252.528 72.4877 252.016 50.4874 247.182 47.1853C245.189 45.8235 214.538 45.5141 213.421 45.3986C206.535 44.6862 201.635 41.9569 195.837 41.6578C181.707 40.9288 174.564 44.3517 174.564 44.3517L174.314 51.415L252.528 72.4877V72.4877Z" fill="#3B50A2"/>
<path d="M263.048 35.1308C269.954 35.1308 275.553 29.5418 275.553 22.6475C275.553 15.7532 269.954 10.1643 263.048 10.1643C256.141 10.1643 250.543 15.7532 250.543 22.6475C250.543 29.5418 256.141 35.1308 263.048 35.1308Z" fill="#A0616A"/>
<path d="M259.255 4.05918C256.565 5.75175 254.595 4.53997 252.674 5.39359C248.921 7.0614 242.583 18.7755 243.155 23.6797C243.964 30.6254 246.521 30.9114 246.445 35.8946C246.323 43.8965 245.686 43.8633 247.327 46.6574C249.153 49.765 259.494 48.9212 261.414 44.7071C261.793 43.8757 257.586 44.2027 252.937 33.2955C250.605 27.8223 252.136 22.8349 252.937 20.6684C253.125 20.1612 253.211 16.5601 253.611 16.9598C257.121 20.464 259.089 17.9025 261.209 17.6085C265.559 17.0052 268.834 20.5086 270.154 19.2508C271.136 18.3149 269.884 15.8403 270.36 15.6582C270.868 15.464 272.549 18.1787 273.65 21.0985C274.36 22.9813 274.715 23.9228 274.679 24.999C274.565 28.3226 273.716 37.746 272.212 40.511C268.964 46.482 273.054 48.735 275.604 48.2997C277.664 47.948 286.772 49.3326 287.27 48.3278C287.714 47.4326 286.7 38.2247 285.634 29.6644C284.353 19.3754 279.218 9.92032 271.167 3.37049C270.695 2.98639 270.343 2.72285 270.154 2.62215C269.708 2.38365 265.11 0.000333309 261.723 1.90363C260.476 2.60431 260.679 3.16331 259.255 4.0592L259.255 4.05918Z" fill="#2F2E41"/>
<path d="M103.048 294.259L96.11 294.258L92.8095 267.542L103.05 267.543L103.048 294.259Z" fill="#FFB6B6"/>
<path d="M79.2772 294.102C79.0612 294.465 78.9472 295.637 78.9472 296.059C78.9472 297.358 80.0015 298.41 81.302 298.41H102.789C103.676 298.41 104.395 297.692 104.395 296.806V295.913C104.395 295.913 105.458 293.229 103.27 289.921C103.27 289.921 100.55 292.512 96.4857 288.454L95.2872 286.287L86.6118 292.621L81.8032 293.212C80.7512 293.341 79.8185 293.192 79.2773 294.102H79.2772H79.2772Z" fill="#2F2E41"/>
<path d="M132.3 294.259L125.362 294.258L122.062 267.542L132.302 267.543L132.3 294.259Z" fill="#FFB6B6"/>
<path d="M108.53 294.102C108.314 294.465 108.2 295.637 108.2 296.059C108.2 297.358 109.254 298.41 110.554 298.41H132.041C132.928 298.41 133.647 297.692 133.647 296.806V295.913C133.647 295.913 134.71 293.229 132.522 289.921C132.522 289.921 129.802 292.512 125.738 288.454L124.54 286.287L115.864 292.621L111.056 293.212C110.003 293.341 109.071 293.192 108.53 294.102H108.53H108.53Z" fill="#2F2E41"/>
<path d="M133.676 125.59L82.7774 125.006L77.512 158.296L90.383 273.351H107.257L111.152 166.181L118.173 275.395H135.45L143.33 150.996L133.676 125.59Z" fill="#2F2E41"/>
<path d="M349.461 289.67C350.669 289.746 351.337 288.246 350.423 287.373L350.332 287.012C350.344 286.983 350.356 286.954 350.368 286.925C351.59 284.016 355.733 284.036 356.945 286.95C358.02 289.536 359.39 292.126 359.727 294.861C359.878 296.068 359.81 297.298 359.542 298.482C362.062 292.986 363.389 286.984 363.389 280.949C363.389 279.432 363.306 277.916 363.136 276.403C362.996 275.166 362.803 273.936 362.554 272.718C361.205 266.132 358.284 259.859 354.07 254.619C352.045 253.514 350.356 251.786 349.336 249.715C348.969 248.968 348.682 248.165 348.546 247.346C348.776 247.376 349.415 243.872 349.241 243.657C349.562 243.17 350.137 242.928 350.488 242.454C352.233 240.092 354.637 240.504 355.892 243.713C358.573 245.064 358.599 247.304 356.954 249.459C355.907 250.829 355.763 252.684 354.845 254.151C354.94 254.272 355.038 254.389 355.132 254.51C356.865 256.728 358.363 259.112 359.626 261.616C359.269 258.833 359.796 255.479 360.695 253.318C361.717 250.854 363.634 248.78 365.323 246.651C367.35 244.093 371.508 245.209 371.866 248.452C371.869 248.483 371.873 248.514 371.876 248.546C371.625 248.687 371.379 248.837 371.139 248.995C369.771 249.899 370.244 252.017 371.866 252.267L371.902 252.273C371.812 253.174 371.657 254.068 371.43 254.947C373.596 263.308 368.92 266.353 362.244 266.49C362.096 266.565 361.953 266.641 361.805 266.713C362.482 268.614 363.022 270.564 363.423 272.541C363.782 274.287 364.031 276.053 364.171 277.826C364.345 280.062 364.33 282.311 364.141 284.544L364.152 284.465C364.632 282.005 365.97 279.708 367.912 278.116C370.805 275.743 374.893 274.87 378.015 272.962C379.517 272.044 381.443 273.231 381.18 274.97L381.168 275.053C380.703 275.242 380.25 275.46 379.811 275.706C379.56 275.847 379.315 275.997 379.075 276.155C377.706 277.059 378.179 279.177 379.801 279.427L379.838 279.432C379.864 279.436 379.887 279.44 379.913 279.444C379.116 281.334 378.005 283.088 376.614 284.6C375.26 291.899 369.444 292.592 363.222 290.466H363.219C362.539 293.424 361.545 296.313 360.268 299.067H349.725C349.687 298.95 349.653 298.829 349.619 298.712C350.594 298.773 351.576 298.716 352.536 298.539C351.754 297.581 350.972 296.615 350.19 295.657C350.171 295.638 350.156 295.619 350.14 295.6C349.744 295.11 349.343 294.623 348.946 294.133L348.946 294.132C348.921 292.627 349.102 291.126 349.46 289.67L349.461 289.67V289.67L349.461 289.67Z" fill="#F2F2F2"/>
<path d="M0 299.305C0 299.691 0.310092 300 0.696241 300H385.827C386.213 300 386.523 299.691 386.523 299.305C386.523 298.92 386.213 298.61 385.827 298.61H0.696241C0.310092 298.61 0 298.92 0 299.305Z" fill="#CCCCCC"/>
<path d="M116.418 38.2771H98.3019L94.7708 45.2855L77.512 53.1976L83.655 98.4327L78.9746 128.218H137.44L132.214 93.7604L139.234 52.2939L119.928 44.7015L116.418 38.2771Z" fill="#E6E6E6"/>
<path d="M177.056 147.89C176.266 146.281 175.906 144.627 175.947 143.18L167.45 128.325L174.649 124.496L182.493 139.977C183.664 140.831 184.753 142.129 185.543 143.738C187.348 147.414 186.911 151.323 184.568 152.47C182.224 153.617 178.861 151.566 177.056 147.89V147.89H177.056Z" fill="#FFB6B6"/>
<path d="M121.051 50.3005C121.051 50.3005 126.783 44.4132 133.213 48.5101C139.643 52.6071 163.099 94.5313 163.099 94.5313L181.193 130.573L168.421 136.513L153.013 102L120.654 67.2373L121.051 50.3005L121.051 50.3005H121.051Z" fill="#E6E6E6"/>
<path d="M106.593 34.8608C115.627 34.8608 122.951 27.5496 122.951 18.5309C122.951 9.51209 115.627 2.20093 106.593 2.20093C97.5581 2.20093 90.2343 9.51209 90.2343 18.5309C90.2343 27.5496 97.5581 34.8608 106.593 34.8608Z" fill="#FFB6B6"/>
<path d="M101.459 31.6735C101.535 33.2733 101.572 34.0732 101.326 34.1699C100.585 34.4609 91.0414 28.8344 89.9176 25.0889C89.3935 23.342 89.8361 23.3072 89.4535 18.3373C89.0876 13.584 88.6774 13.5461 89.1624 12.3701C89.7014 11.0631 91.3476 9.45266 94.64 6.23184C95.8849 5.01403 96.5073 4.40512 96.9002 4.0903C98.0911 3.13612 102.528 -0.418501 106.596 0.0407433C108.301 0.233247 108.009 0.912877 114.38 4.36139C114.928 4.65842 115.664 5.05052 116.68 5.5007C119.152 6.59561 120.685 6.87946 121.492 7.18479C126.383 9.03528 124.948 19.3434 124.528 19.4025C124.374 19.424 124.333 18.0873 123.53 17.9768C122.807 17.8773 122.347 18.8923 121.691 18.9293C119.897 19.0302 121.889 17.3164 117.5 15.4129C115.793 14.673 120.541 18.0093 116.022 17.9552C108.954 17.8705 113.474 18.3195 110.79 19.7271C108.832 20.7536 100.957 15.1045 101.277 16.9096C101.503 18.1828 102.428 18.5494 102.295 19.9757C102.166 21.3575 101.125 22.8469 100.208 22.9017C99.3619 22.9521 98.8984 21.7673 98.6163 21.8806C98.3095 22.004 98.6465 23.4908 99.3082 25.0183C100.148 26.9575 100.65 26.9727 101.093 28.4642C101.348 29.322 101.385 30.1058 101.459 31.6735H101.459V31.6735Z" fill="#2F2E41"/>
<path d="M230.388 143.095L124.987 116.325C118.25 114.613 114.163 107.749 115.877 101.023L128.99 49.575C130.704 42.849 137.58 38.7691 144.318 40.4804L249.718 67.2508C256.456 68.962 260.543 75.8264 258.829 82.5524L245.716 134.001C244.002 140.727 237.126 144.806 230.388 143.095Z" fill="white"/>
<path d="M230.388 143.095L124.987 116.325C121.619 115.469 118.912 113.325 116.979 110.482C114.167 106.346 113.433 101.139 114.668 96.2944L125.663 53.1515C126.898 48.3068 130.036 44.0829 134.486 41.7917C137.545 40.2169 140.949 39.6247 144.318 40.4803L249.718 67.2507C256.467 68.9647 260.546 75.8155 258.829 82.5523L245.716 134C244.002 140.726 237.126 144.806 230.388 143.095H230.388ZM144.029 41.6123C137.907 40.0574 139.507 45.5925 137.949 51.7041L137.949 51.7041C130.35 81.5217 146.068 112.349 174.695 123.749C190.148 129.904 203.002 134.934 203.002 134.934C224.408 140.371 246.177 127.455 251.624 106.085L257.695 82.2643C259.252 76.1527 255.552 69.9377 249.43 68.3827L144.029 41.6124V41.6123Z" fill="#3F3D56"/>
<path d="M193.346 82.1552L193.346 82.1552C192.611 76.1277 187.121 71.8359 181.083 72.5691L181.083 72.5691C175.102 73.2954 170.831 78.6797 171.464 84.6394L171.289 84.6606L173.948 106.488L194.068 104.045C194.704 104.079 195.351 104.062 196.005 103.983L196.005 103.983C202.043 103.249 206.343 97.7688 205.608 91.7413V91.7413C204.874 85.7138 199.383 81.422 193.346 82.1552L193.346 82.1553V82.1552Z" fill="#FF8383"/>
<path d="M154.78 288.351H154.78C153.928 286.159 151.457 285.072 149.261 285.922H149.261C147.086 286.765 145.998 289.193 146.806 291.369L146.742 291.394L149.828 299.332L157.145 296.497C157.387 296.449 157.628 296.381 157.866 296.289H157.866C160.061 295.438 161.151 292.972 160.299 290.78V290.78C159.446 288.588 156.976 287.5 154.78 288.351L154.78 288.351Z" fill="#FF8383"/>
<path d="M318.593 288.351C317.741 286.159 315.27 285.072 313.074 285.922C310.899 286.765 309.811 289.193 310.619 291.369L310.555 291.394L313.641 299.332L320.958 296.497C321.2 296.449 321.441 296.381 321.679 296.289C323.875 295.438 324.964 292.972 324.112 290.78V290.78C323.26 288.588 320.789 287.5 318.593 288.351L318.593 288.351H318.593Z" fill="#FF8383"/>
<path d="M184.706 145.066C192.461 145.066 198.747 138.791 198.747 131.049C198.747 123.308 192.461 117.032 184.706 117.032C176.951 117.032 170.665 123.308 170.665 131.049C170.665 138.791 176.951 145.066 184.706 145.066Z" fill="#FF8383"/>
<path d="M120.877 74.2033C119.371 75.1777 117.768 75.7317 116.324 75.8632L102.559 86.0506L97.8945 79.3701L112.36 69.7553C113.071 68.4931 114.232 67.2598 115.739 66.2854C119.18 64.0594 123.121 64.0274 124.54 66.2139C125.959 68.4004 124.319 71.9773 120.877 74.2033H120.877V74.2034L120.877 74.2033Z" fill="#FFB6B6"/>
<path d="M88.6367 50.4306C88.6367 50.4306 78.1059 49.2625 76.3507 53.3508C74.5956 57.439 71.0853 98.3214 71.0853 98.3214L76.9358 108.25L115.302 79.2631L107.533 71.5069L91.0898 79.2631L88.6367 50.4306H88.6367V50.4306Z" fill="#E6E6E6"/>
<path d="M241.167 63.6408C242.418 64.9257 243.856 65.8219 245.235 66.2712L256.382 79.263L262.419 73.7873L250.462 61.198C250.051 59.8095 249.194 58.349 247.943 57.0641C245.084 54.1288 241.249 53.2216 239.378 55.0377C237.507 56.8538 238.308 60.7055 241.167 63.6408V63.6408Z" fill="#A0616A"/>
<path d="M277.901 47.6326C277.901 47.6326 288.428 48.835 289.227 53.2108C290.026 57.5866 284.328 98.2227 284.328 98.2227L276.409 106.601L245.473 69.8127L254.777 63.9787L269.077 75.1956L277.901 47.6326Z" fill="#3B50A2"/>
<path d="M135.96 94.8138C140.808 94.8138 144.738 90.8904 144.738 86.0507C144.738 81.211 140.808 77.2876 135.96 77.2876C131.112 77.2876 127.182 81.211 127.182 86.0507C127.182 90.8904 131.112 94.8138 135.96 94.8138Z" fill="#E6E6E6"/>
</g>
<defs>
<clipPath id="clip0_148_3">
<rect width="386.523" height="300" fill="white"/>
</clipPath>
</defs>
</svg>
