<svg width="516" height="308" viewBox="0 0 516 308" fill="none" xmlns="http://www.w3.org/2000/svg">
<g clip-path="url(#clip0_207_121)">
<path d="M394.426 304.517C387.831 298.944 383.825 290.14 384.875 281.569C385.926 272.998 392.433 265.119 400.874 263.299C409.315 261.479 418.937 266.517 421.501 274.763C422.912 258.866 424.538 242.303 432.99 228.765C440.643 216.507 453.898 207.735 468.263 206.166C482.629 204.597 497.754 210.524 506.713 221.862C515.673 233.201 517.866 249.685 511.591 262.702C506.969 272.292 498.453 279.428 489.53 285.235C460.697 303.838 426.116 311.403 392.149 306.538L394.426 304.517Z" fill="#F2F2F2"/>
<path d="M492.508 210.852C480.654 220.507 469.78 231.305 460.042 243.09C444.803 261.471 432.471 282.079 423.476 304.196C422.817 305.81 425.437 306.512 426.088 304.917C440.806 268.971 464.3 237.289 494.423 212.768C495.776 211.666 493.849 209.76 492.508 210.852Z" fill="white"/>
<path d="M165.842 303.003C174.901 295.348 180.403 283.256 178.96 271.484C177.517 259.712 168.579 248.89 156.986 246.39C145.392 243.89 132.176 250.81 128.655 262.135C126.717 240.301 124.484 217.551 112.875 198.957C102.364 182.12 84.1577 170.073 64.4266 167.918C44.6955 165.763 23.9212 173.903 11.6157 189.476C-0.689912 205.05 -3.70288 227.69 4.91562 245.57C11.2646 258.741 22.9616 268.544 35.2171 276.518C74.3165 301.96 122.819 312.571 168.97 305.779" fill="#F2F2F2"/>
<path d="M31.1274 174.354C47.4079 187.615 62.3437 202.446 75.7185 218.633C89.0955 234.803 100.872 252.233 110.884 270.677C116.48 281.024 121.507 291.668 125.943 302.562C126.847 304.778 123.248 305.743 122.354 303.552C114.497 284.345 104.777 265.954 93.3333 248.643C81.9448 231.395 68.91 215.293 54.412 200.562C46.2119 192.234 37.5601 184.363 28.4958 176.985C26.6379 175.472 29.2848 172.853 31.1274 174.354Z" fill="white"/>
<path d="M369.798 307.326H153.663V85.5657C153.663 38.3845 192.047 0 239.228 0H284.232C331.413 0 369.798 38.3845 369.798 85.5657V307.326Z" fill="#F2F2F2"/>
<path d="M324.794 307.326H153.663V85.5657C153.616 67.4869 159.34 49.8651 170.004 35.2659C170.397 34.7301 170.789 34.2013 171.193 33.6782C176.351 26.9135 182.489 20.956 189.404 16.0022C189.795 15.718 190.187 15.4387 190.585 15.1594C196.372 11.1549 202.631 7.88135 209.221 5.41319C209.613 5.26486 210.011 5.11624 210.41 4.97369C216.37 2.84674 222.548 1.38978 228.83 0.629729C229.22 0.576524 229.62 0.534891 230.02 0.493257C236.142 -0.161347 242.316 -0.161347 248.439 0.493257C248.837 0.534891 249.237 0.576519 249.631 0.630298C255.912 1.3904 262.089 2.84718 268.047 4.97372C268.446 5.11627 268.844 5.26488 269.237 5.4135C275.746 7.85053 281.932 11.0752 287.657 15.0157C288.054 15.2889 288.452 15.5682 288.845 15.8475C292.721 18.6145 296.362 21.6971 299.73 25.0638C302.432 27.7642 304.949 30.6427 307.265 33.68C307.668 34.2013 308.06 34.7301 308.453 35.265C319.116 49.8644 324.841 67.4866 324.794 85.5657V307.326Z" fill="#CCCCCC"/>
<path d="M310.879 208.141C316.111 208.141 320.353 203.899 320.353 198.666C320.353 193.434 316.111 189.192 310.879 189.192C305.646 189.192 301.404 193.434 301.404 198.666C301.404 203.899 305.646 208.141 310.879 208.141Z" fill="#3B50A2"/>
<path d="M352.092 300.684H344.832L341.378 272.682L352.093 272.683L352.092 300.684Z" fill="#FFB8B8"/>
<path d="M339.646 298.609H353.647V307.425H330.831C330.831 306.267 331.059 305.121 331.502 304.051C331.945 302.982 332.594 302.01 333.413 301.191C334.232 300.373 335.203 299.723 336.273 299.28C337.342 298.837 338.489 298.609 339.646 298.609Z" fill="#2F2E41"/>
<path d="M388.213 300.684H380.953L377.499 272.682L388.214 272.683L388.213 300.684Z" fill="#FFB8B8"/>
<path d="M375.767 298.609H389.768V307.425H366.952C366.952 306.267 367.18 305.121 367.623 304.051C368.066 302.982 368.716 302.01 369.534 301.191C370.353 300.373 371.324 299.723 372.394 299.28C373.463 298.837 374.61 298.609 375.767 298.609Z" fill="#2F2E41"/>
<path d="M315.674 200.543C315.151 199.774 314.804 198.899 314.657 197.981C314.509 197.063 314.564 196.123 314.819 195.229C315.074 194.334 315.521 193.507 316.13 192.804C316.74 192.101 317.495 191.541 318.345 191.162L343.023 123.143L355.166 129.77L326.989 194.771C327.531 196.24 327.516 197.857 326.945 199.315C326.375 200.773 325.29 201.972 323.895 202.683C322.5 203.394 320.893 203.57 319.378 203.175C317.863 202.781 316.545 201.844 315.674 200.543Z" fill="#FFB8B8"/>
<path d="M384.504 213.324C383.698 212.862 383.002 212.228 382.467 211.467C381.931 210.707 381.569 209.838 381.406 208.923C381.243 208.007 381.282 207.067 381.521 206.168C381.761 205.27 382.194 204.434 382.791 203.721L375.146 131.77L388.966 132.401L392.143 203.175C393.274 204.258 393.969 205.717 394.096 207.278C394.223 208.839 393.773 210.391 392.832 211.642C391.89 212.893 390.522 213.756 388.988 214.066C387.453 214.375 385.858 214.112 384.504 213.324Z" fill="#FFB8B8"/>
<path d="M362.458 110.545C370.491 110.545 377.002 104.033 377.002 96.0008C377.002 87.9685 370.491 81.457 362.458 81.457C354.426 81.457 347.915 87.9685 347.915 96.0008C347.915 104.033 354.426 110.545 362.458 110.545Z" fill="#FFB8B8"/>
<path d="M384.412 196.96H340.565L340.617 196.619C340.696 196.109 348.432 145.434 342.727 128.856C342.154 127.226 342.204 125.443 342.868 123.849C343.531 122.255 344.761 120.962 346.321 120.22C354.475 116.38 370.13 111.651 383.342 123.127C385.286 124.844 386.804 126.989 387.777 129.393C388.749 131.798 389.148 134.395 388.943 136.981L384.412 196.96Z" fill="#3B50A2"/>
<path d="M348.986 152.923L329.246 148.918L338.499 126.991C339.053 124.867 340.426 123.05 342.318 121.937C344.21 120.825 346.466 120.508 348.591 121.057C350.716 121.605 352.537 122.975 353.654 124.864C354.771 126.753 355.093 129.008 354.55 131.135L348.986 152.923Z" fill="#3B50A2"/>
<path d="M374.269 160.359L373.082 133.155C372.182 128.041 375.109 123.206 379.612 122.416C384.115 121.629 388.513 125.176 389.417 130.327L393.877 155.747L374.269 160.359Z" fill="#3B50A2"/>
<path d="M382.953 193.703C390.008 220.573 390.778 254.736 388.874 292L379.4 290.816L362.228 219.758L352.753 292L342.095 291.408C338.91 252.308 335.81 218.742 340.91 196.664L382.953 193.703Z" fill="#2F2E41"/>
<path d="M372.041 107.241C369.328 110.131 364.289 108.579 363.936 104.631C363.908 104.324 363.91 104.016 363.942 103.71C364.124 101.961 365.135 100.373 364.893 98.5264C364.838 98.0668 364.667 97.6288 364.395 97.2539C362.233 94.3587 357.158 98.5489 355.117 95.9279C353.866 94.3208 355.337 91.7905 354.377 89.9943C353.11 87.6235 349.356 88.793 347.002 87.4947C344.383 86.0502 344.54 82.032 346.264 79.5879C348.366 76.6073 352.053 75.0168 355.693 74.7876C359.333 74.5584 362.948 75.5424 366.347 76.8669C370.208 78.3717 374.038 80.4515 376.414 83.8469C379.304 87.976 379.582 93.5273 378.137 98.3556C377.257 101.293 374.257 104.881 372.041 107.241Z" fill="#2F2E41"/>
<path d="M497.395 307.707H60.2142C60.0276 307.706 59.8488 307.632 59.717 307.5C59.5852 307.367 59.5112 307.188 59.5112 307.002C59.5112 306.815 59.5852 306.636 59.717 306.504C59.8488 306.372 60.0276 306.297 60.2142 306.297H497.395C497.582 306.297 497.76 306.372 497.892 306.504C498.024 306.636 498.098 306.815 498.098 307.002C498.098 307.188 498.024 307.367 497.892 307.5C497.76 307.632 497.582 307.706 497.395 307.707Z" fill="#3F3D56"/>
<path d="M277.718 243.078H200.739C199.725 243.083 198.75 242.686 198.029 241.974C197.307 241.262 196.898 240.293 196.89 239.279V67.4549C196.898 66.4411 197.307 65.4718 198.029 64.7597C198.75 64.0475 199.725 63.6506 200.739 63.6561H277.718C278.732 63.6506 279.707 64.0475 280.428 64.7597C281.15 65.4718 281.559 66.4411 281.567 67.4549V239.279C281.559 240.293 281.15 241.262 280.428 241.974C279.707 242.686 278.732 243.083 277.718 243.078Z" fill="white"/>
<path d="M281.567 119.253H196.89V120.437H281.567V119.253Z" fill="#CCCCCC"/>
<path d="M281.863 186.823H197.186V188.008H281.863V186.823Z" fill="#CCCCCC"/>
<path d="M224.721 63.6561H223.536V243.67H224.721V63.6561Z" fill="#CCCCCC"/>
<path d="M254.328 63.6561H253.144V243.67H254.328V63.6561Z" fill="#CCCCCC"/>
</g>
<defs>
<clipPath id="clip0_207_121">
<rect width="515.17" height="308" fill="white"/>
</clipPath>
</defs>
</svg>
