<svg width="474" height="340" viewBox="0 0 474 340" fill="none" xmlns="http://www.w3.org/2000/svg">
<g clip-path="url(#clip0_205_88)">
<path d="M383.602 216.158C384.026 216.198 384.451 216.106 384.821 215.895C385.191 215.684 385.487 215.365 385.669 214.981C385.851 214.596 385.911 214.165 385.84 213.745C385.769 213.326 385.57 212.938 385.272 212.635C385.229 212.425 385.198 212.274 385.156 212.063C385.177 212.019 385.198 211.975 385.219 211.931C385.693 210.94 386.45 210.112 387.394 209.55C388.338 208.988 389.427 208.718 390.524 208.773C391.621 208.828 392.678 209.207 393.561 209.86C394.444 210.514 395.114 211.414 395.487 212.447C396.978 216.57 398.928 220.722 399.255 225.024C399.399 226.926 399.212 228.838 398.702 230.675C403.048 222.253 405.532 212.995 405.986 203.529C406.098 201.153 406.076 198.773 405.922 196.4C405.794 194.455 405.58 192.519 405.281 190.593C403.649 180.142 399.561 170.228 393.353 161.665C390.243 159.775 387.787 156.978 386.316 153.65C385.783 152.453 385.426 151.186 385.255 149.887C385.613 149.951 385.978 149.997 386.336 150.038C386.448 150.049 386.566 150.06 386.678 150.071L386.72 150.075C387.115 150.111 387.512 150.033 387.863 149.848C388.214 149.664 388.504 149.383 388.699 149.037C388.894 148.692 388.984 148.298 388.96 147.902C388.936 147.507 388.798 147.126 388.563 146.807C388.416 146.609 388.27 146.41 388.123 146.212C387.901 145.906 387.672 145.606 387.45 145.3C387.424 145.27 387.4 145.239 387.377 145.207C387.122 144.858 386.866 144.515 386.61 144.166C387.141 143.42 387.837 142.807 388.645 142.375C391.439 140.908 395.14 142.186 396.991 144.738C398.847 147.291 399.058 150.76 398.231 153.802C397.436 156.387 396.207 158.817 394.596 160.989C394.735 161.185 394.88 161.375 395.019 161.571C397.554 165.164 399.731 168.997 401.518 173.015C401.244 168.594 402.023 164.171 403.791 160.111C405.568 156.332 408.712 153.227 411.503 150.019C414.856 146.165 421.268 148.214 421.59 153.311C421.593 153.36 421.596 153.41 421.599 153.459C421.197 153.662 420.803 153.878 420.416 154.109C419.93 154.402 419.544 154.835 419.309 155.351C419.073 155.866 418.999 156.442 419.096 157C419.192 157.559 419.456 158.076 419.851 158.483C420.247 158.889 420.756 159.167 421.312 159.279L421.369 159.291C421.163 160.696 420.852 162.083 420.436 163.44C419.239 167.228 417.272 170.728 414.659 173.72C412.046 176.712 408.843 179.132 405.251 180.828C405.016 180.936 404.786 181.043 404.551 181.145C406.269 186.847 407.239 192.748 407.435 198.7C407.54 202.211 407.36 205.725 406.899 209.207L406.922 209.084C407.858 205.231 410.096 201.82 413.256 199.426C417.947 195.925 424.394 194.855 429.407 192.099C429.94 191.791 430.551 191.641 431.167 191.668C431.782 191.695 432.377 191.898 432.882 192.252C433.386 192.607 433.778 193.098 434.013 193.668C434.247 194.238 434.313 194.863 434.204 195.469C434.196 195.512 434.187 195.555 434.178 195.599C433.438 195.861 432.714 196.169 432.012 196.521C431.61 196.723 431.216 196.94 430.83 197.171C430.344 197.463 429.958 197.896 429.722 198.412C429.487 198.928 429.412 199.503 429.509 200.062C429.606 200.621 429.869 201.138 430.265 201.544C430.66 201.951 431.169 202.229 431.725 202.341L431.782 202.353C431.823 202.36 431.858 202.368 431.899 202.376C430.52 205.282 428.65 207.93 426.373 210.202C423.562 212.95 420.219 215.095 416.55 216.506C412.88 217.916 408.961 218.562 405.034 218.404L405.028 218.404C403.746 222.986 401.992 227.423 399.793 231.643L383.33 230.876C383.279 230.691 383.235 230.499 383.191 230.314C384.71 230.481 386.244 230.461 387.759 230.255C386.607 228.699 385.456 227.132 384.304 225.576C384.278 225.547 384.254 225.516 384.232 225.484C383.648 224.688 383.058 223.898 382.474 223.102L382.474 223.101C382.55 220.748 382.929 218.415 383.601 216.159L383.602 216.158Z" fill="#F2F2F2"/>
<path d="M51.8943 73.8008C51.4738 73.8662 51.0434 73.8007 50.6614 73.6133C50.2793 73.4259 49.9641 73.1255 49.7584 72.753C49.5528 72.3804 49.4666 71.9536 49.5116 71.5305C49.5566 71.1073 49.7306 70.7082 50.01 70.3872C50.0395 70.1748 50.0607 70.0222 50.0903 69.8098C50.0668 69.7668 50.0431 69.7239 50.0194 69.681C49.4843 68.7217 48.6776 67.9419 47.7007 67.4395C46.7238 66.9372 45.6203 66.7347 44.5287 66.8576C43.4371 66.9804 42.4062 67.4231 41.5654 68.13C40.7246 68.8368 40.1114 69.7764 39.8029 70.8307C38.5691 75.0386 36.8795 79.3031 36.8185 83.617C36.7923 85.5237 37.0972 87.4206 37.7194 89.2232C32.8616 81.0856 29.8103 71.9987 28.7724 62.5785C28.5144 60.2143 28.3888 57.8376 28.3962 55.4594C28.4039 53.5096 28.4974 51.5643 28.6765 49.6236C29.6603 39.0924 33.1281 28.9446 38.7953 20.0139C41.7824 17.9358 44.0606 14.9921 45.3231 11.5794C45.7814 10.3521 46.0597 9.06497 46.1493 7.75799C45.7962 7.84393 45.4353 7.91288 45.0797 7.97532C44.9687 7.99329 44.8519 8.01196 44.7409 8.02999L44.6991 8.03646C44.3073 8.09695 43.9064 8.0429 43.5446 7.88084C43.1829 7.71878 42.8756 7.45561 42.66 7.123C42.4443 6.79039 42.3294 6.40253 42.329 6.00612C42.3286 5.60971 42.4429 5.22165 42.6579 4.88864C42.7919 4.68148 42.926 4.47439 43.0601 4.2674C43.2631 3.94821 43.4726 3.63427 43.6755 3.31513C43.6996 3.28429 43.7219 3.25209 43.7423 3.21869C43.9761 2.85457 44.2103 2.49636 44.4441 2.13224C43.8678 1.42055 43.1348 0.851611 42.3024 0.469771C39.4228 -0.821312 35.8074 0.683048 34.1182 3.34455C32.4232 6.00664 32.4269 9.48231 33.4408 12.4677C34.3939 14.9982 35.7707 17.3481 37.5123 19.4166C37.3859 19.6205 37.253 19.8191 37.1266 20.023C34.8183 23.7658 32.8823 27.7259 31.3464 31.8464C31.3471 27.4173 30.2964 23.0513 28.2806 19.1076C26.2741 15.4461 22.9436 12.5408 19.9595 9.51131C16.3751 5.87245 10.1021 8.313 10.0959 13.4207C10.0959 13.4702 10.0959 13.5196 10.0961 13.569C10.5097 13.7464 10.9165 13.9383 11.3166 14.1445C11.8196 14.4068 12.2315 14.8149 12.4986 15.3153C12.7657 15.8157 12.8753 16.3851 12.8132 16.9489C12.7511 17.5127 12.5202 18.0446 12.1506 18.4749C11.7811 18.9052 11.2902 19.2139 10.7422 19.3604L10.6861 19.3754C10.9777 20.7648 11.3745 22.1299 11.873 23.4591C13.3019 27.1658 15.4811 30.5373 18.274 33.3623C21.0669 36.1873 24.4133 38.4049 28.1034 39.8759C28.3452 39.9685 28.5811 40.0616 28.8223 40.1483C27.4595 45.9456 26.8563 51.8955 27.0279 57.8483C27.1403 61.3591 27.5365 64.855 28.2125 68.302L28.1814 68.1805C27.0089 64.3934 24.5653 61.127 21.2634 58.9328C16.365 55.7281 9.8643 55.0589 4.69036 52.6175C4.13881 52.3426 3.52014 52.2311 2.90732 52.2963C2.29451 52.3614 1.7131 52.6005 1.23168 52.9852C0.750253 53.3699 0.388892 53.8843 0.190217 54.4677C-0.00845815 55.051 -0.036164 55.6791 0.11037 56.2777C0.121571 56.3202 0.132889 56.3627 0.144316 56.4051C0.89949 56.621 1.64048 56.8837 2.36298 57.1917C2.77658 57.3692 3.18341 57.5611 3.58348 57.7673C4.08642 58.0296 4.49841 58.4376 4.76546 58.938C5.03252 59.4385 5.14218 60.0079 5.08009 60.5717C5.018 61.1355 4.78705 61.6674 4.4175 62.0977C4.04795 62.528 3.55703 62.8367 3.00907 62.9832L2.95292 62.9982C2.91246 63.0085 2.87785 63.0183 2.83746 63.0286C4.39393 65.8444 6.42348 68.3713 8.8372 70.4986C11.8126 73.0677 15.2814 75.0021 19.0309 76.1831C22.7804 77.3641 26.7316 77.7668 30.6423 77.3665L30.6482 77.3658C32.2104 81.8603 34.2355 86.1803 36.6909 90.2561L53.0749 88.474C53.1138 88.2855 53.1462 88.0919 53.1793 87.9041C51.6731 88.1644 50.1408 88.2393 48.6164 88.1271C49.6698 86.5033 50.7218 84.8677 51.7752 83.2439C51.7992 83.2131 51.8215 83.1809 51.8419 83.1475C52.3755 82.317 52.9156 81.4918 53.4491 80.6613L53.4493 80.6603C53.2277 78.3167 52.7052 76.0113 51.8948 73.8011L51.8943 73.8008Z" fill="#F2F2F2"/>
<path d="M278.253 67.7291C279.064 67.9522 279.816 68.3505 280.456 68.8957C281.097 69.441 281.61 70.12 281.959 70.885C282.309 71.65 282.486 72.4824 282.48 73.3234C282.473 74.1645 282.281 74.9938 281.919 75.753L290.711 85.5279L286.074 92.3196L273.852 78.3412C272.617 77.6484 271.679 76.5266 271.216 75.1885C270.753 73.8503 270.796 72.3887 271.339 71.0806C271.881 69.7725 272.885 68.7089 274.159 68.0912C275.433 67.4735 276.89 67.3447 278.253 67.7291Z" fill="#FFD5DB"/>
<path d="M360.563 91.7315C359.77 90.4414 358.731 89.3205 357.504 88.433C356.277 87.5456 354.887 86.909 353.414 86.5599C351.941 86.2107 350.413 86.1559 348.918 86.3985C347.424 86.6411 345.992 87.1764 344.705 87.9736L315.789 105.882L284.599 79.3688L276.839 86.594L311.295 131.3L356.079 107.953C355.034 108.498 361.825 93.787 360.563 91.7315Z" fill="#3B50A2"/>
<path d="M303.281 151.278C303.284 165.558 300.473 179.7 295.01 192.894C289.546 206.088 281.536 218.077 271.438 228.175C261.341 238.272 249.352 246.282 236.158 251.746C222.964 257.209 208.822 260.02 194.542 260.017C134.487 260.017 85.8023 211.332 85.8023 151.278C85.7919 139.596 87.6645 127.99 91.348 116.904C98.5798 95.2541 112.434 76.4254 130.953 63.0803C149.471 49.7353 171.716 42.5493 194.542 42.5384C214.228 42.5316 233.546 47.8707 250.434 57.9858C267.322 68.1009 281.147 82.6123 290.432 99.9709C292.734 104.254 294.742 108.688 296.443 113.243C296.678 113.877 296.908 114.512 297.131 115.152V115.158C298.128 117.973 299.006 120.841 299.765 123.761C302.107 132.745 303.289 141.993 303.281 151.278Z" fill="#16528C" fill-opacity="0.66"/>
<path d="M182.645 77.9126C177.758 75.27 172.332 73.7783 166.781 73.5512C161.231 73.3241 155.701 74.3676 150.615 76.6022C146.137 78.5511 141.421 82.0474 139.927 88.3609C145.969 84.795 153.791 90.4291 155.346 99.4674L154.983 99.5674C154.162 105.828 155.995 112.643 159.544 116.525C160.01 112.493 162.661 109.749 165.269 108.035C167.876 106.32 170.761 105.075 172.752 102.129C175.111 98.6356 175.71 93.5304 176.648 88.8732C177.585 84.216 179.364 79.2103 182.645 77.9126Z" fill="white"/>
<path d="M148.823 131.185C147.149 133.698 144.914 135.275 142.909 137.238C140.909 139.208 139.006 141.866 138.607 145.279C138.354 147.466 138.746 149.689 138.692 151.9C138.638 154.111 137.901 156.6 136.396 157.15C134.022 158.007 132.21 153.597 129.769 153.289C127.83 153.048 126.084 156.099 126.646 158.745C127.208 161.391 129.848 162.562 131.364 160.835C132.735 163.136 131.769 167.311 129.709 168.018C129.491 169.467 129.274 170.911 129.062 172.361C123.855 168.718 118.593 165.015 114.165 159.681C109.24 153.798 106.186 146.579 105.394 138.948C104.82 132.816 105.671 125.802 102.856 121.084C100.603 117.309 96.7366 116.475 93.2569 116.711C92.6227 116.753 91.9823 116.825 91.348 116.904C93.4001 110.741 96.0064 104.776 99.1349 99.0828C99.8429 98.7789 100.501 98.3695 101.086 97.8686C104.324 95.1199 105.762 89.556 108.39 85.7078C108.559 85.4601 108.734 85.2185 108.915 84.983C111.604 81.4731 115.204 79.6668 118.684 77.9873C126.386 74.2479 134.312 70.4602 142.443 70.9797L140.13 71.2032C137.429 78.7667 134.727 86.3301 132.023 93.8935C131.612 95.0534 131.197 96.2153 130.778 97.3792C129.244 101.68 127.661 106.26 127.897 111.074C128.035 113.926 129.026 116.97 130.911 117.949C132.669 118.855 134.59 117.744 136.288 116.644C137.006 116.185 137.719 115.726 138.438 115.261C141.018 113.599 143.875 111.896 146.6 113.007C149.095 114.022 150.937 117.411 151.288 121.066C151.609 124.619 150.742 128.178 148.823 131.185Z" fill="white"/>
<path d="M164.165 182.823C156.631 178.184 149.097 173.545 141.563 168.907L141.691 168.577C137.007 170.361 135.062 178.688 135.836 185.497C136.61 192.306 139.235 198.393 140.561 205.028C142.349 214.107 141.674 223.5 138.607 232.23C148.513 221.115 157.281 209.034 164.777 196.169C165.824 194.547 166.622 192.778 167.144 190.92C167.623 188.943 167.549 186.566 166.591 184.981C165.974 184.071 165.14 183.329 164.165 182.823Z" fill="white"/>
<path d="M134.431 98.4315C133.631 100.23 133.323 102.629 134.049 104.49C134.791 106.39 136.358 107.249 137.801 107.965L141.964 110.028C143.349 110.714 144.842 111.408 146.253 110.843C147.956 110.162 149.137 107.492 148.831 105.014C148.506 102.377 146.844 100.563 145.307 99.018C143.155 96.8562 141.004 94.6944 138.852 92.5326L137.64 94.0177C136.328 95.2969 135.243 96.7893 134.431 98.4315Z" fill="white"/>
<path d="M280.965 126.624C282.838 127.065 284.711 127.506 286.584 127.947C286.257 134.272 283.122 140.126 278.917 142.246C277.166 143.128 275.214 143.454 273.764 145.104C272.454 146.602 271.789 148.934 271.179 151.163C270.11 155.053 269.04 158.944 267.971 162.834C266.823 167.027 265.349 171.684 262.365 173.195C259.804 174.494 256.874 172.905 254.904 170.241C252.935 167.577 251.733 163.994 250.567 160.502C250.639 164.308 248.869 168.042 246.362 169.365C243.849 170.688 240.792 169.492 239.113 166.537C237.905 164.417 237.403 161.62 236.219 159.469C235.035 157.319 232.552 156.086 231.259 158.104C230.408 159.445 230.516 161.499 230.093 163.203C229.435 165.849 227.441 167.51 225.466 167.655C223.497 167.8 221.576 166.664 219.926 165.124C216.525 161.934 214.018 156.872 213.046 151.247C212.617 148.74 212.496 146.01 213.239 143.66C213.982 141.31 215.776 139.498 217.558 139.945C218.73 137.468 216.417 134.181 214.332 134.471C212.242 134.761 210.605 137.003 208.889 138.724C207.18 140.446 204.787 141.697 203.066 139.987C203.078 141.576 201.785 142.627 200.667 142.494C199.556 142.367 198.565 141.473 197.544 140.839C193.599 138.38 188.591 140.011 185.788 144.663C187.54 137.208 190.108 128.654 195.49 126.902C197.689 126.183 200.087 126.775 202.166 125.531C205.845 123.326 206.588 114.995 203.41 111.558C203.815 114.808 203.736 118.601 202.021 120.825C200.305 123.048 196.704 121.598 196.922 118.311C196.427 120.577 193.962 120.921 192.826 119.181C191.684 117.442 191.781 114.596 192.59 112.518C193.4 110.44 194.777 108.948 196.112 107.516C198.982 104.441 201.894 101.33 205.216 99.3968C208.545 97.4637 212.387 96.8113 215.722 98.7324C217.48 99.7472 219.026 101.439 220.82 102.333C222.615 103.233 224.892 103.118 226.082 101.016C227.417 98.6719 226.789 95.1922 227.284 92.2623C228.172 87.0852 233.35 84.6627 236.219 88.0819C234.075 87.5322 231.857 90.0694 231.592 93.1444C231.32 96.2193 232.872 99.3244 234.95 100.255C238.442 101.801 241.861 97.9107 244.501 94.3103C247.256 90.5407 250.015 86.773 252.778 83.0074C253.219 82.3663 253.714 81.764 254.258 81.2072C255.123 80.3638 256.277 79.8808 257.485 79.8562C258.693 79.8315 259.865 80.2669 260.764 81.0743C263.555 83.3518 264.866 88.0216 267.156 91.2354C270.478 95.9051 275.45 97.0408 280.077 97.947C283.527 98.6176 286.978 99.2922 290.432 99.9708C292.734 104.254 294.742 108.688 296.443 113.243C290.595 115.726 285.2 120.372 280.965 126.624Z" fill="white"/>
<path d="M292.117 199.31C289.529 204.566 286.519 209.602 283.116 214.371C280.941 213.44 278.603 215.102 276.567 216.66C274.441 218.291 271.886 219.88 269.705 218.394C267.476 216.872 266.757 212.613 267.464 209.236C268.17 205.865 269.934 203.183 271.644 200.633C273.456 197.927 275.395 195.118 277.915 194.067C280.44 193.016 283.684 194.502 284.421 198.09L286.209 198.03C285.206 196.652 285.732 193.801 287.079 193.299C288.631 192.713 289.979 194.846 290.897 196.731C291.308 197.583 291.724 198.44 292.117 199.31Z" fill="white"/>
<path d="M223.632 173.793C219.789 174.035 216.744 169.303 214.721 164.649C212.698 159.994 210.852 154.671 207.384 152.301C205.402 150.948 203.143 150.762 200.994 150.106C198.844 149.45 196.595 148.092 195.567 145.328L193.129 144.343C189.909 146.153 186.647 147.997 183.872 150.943C180.76 154.249 178.822 158.486 178.356 163.002C177.891 167.882 179.61 173.324 182.824 175.157C185.363 176.606 188.32 175.693 190.892 177.019C194.105 178.676 196.013 183.489 196.735 188.241C197.457 192.993 197.274 197.932 197.791 202.738C198.308 207.544 199.732 212.545 202.679 215.008C206.367 218.09 211.778 215.529 213.433 209.919C214.244 207.166 214.216 204.061 214.823 201.204C215.892 196.174 218.777 192.441 221.065 188.314C223.353 184.187 225.154 178.583 223.632 173.793Z" fill="white"/>
<path d="M185.652 124.358C186.011 124.688 186.345 125.043 186.653 125.421C186.972 125.97 187.135 126.597 187.124 127.232C187.113 127.867 186.929 128.487 186.592 129.026C187.055 128.999 187.507 128.877 187.92 128.667C188.334 128.457 188.699 128.164 188.993 127.805C189.695 127.006 190.312 126.137 190.835 125.211C191.227 124.572 191.644 123.708 191.378 122.948C191.196 122.43 190.767 122.209 190.466 121.819C189.989 121.202 189.87 120.221 189.623 119.373C189.09 117.542 187.813 116.195 186.426 116.003L186.618 116.04C186.039 116.238 185.635 117.158 185.763 117.986C185.879 118.74 186.364 119.366 186.315 120.134C186.246 121.24 185.141 121.759 185.073 122.865C185.062 123.419 185.27 123.956 185.652 124.358Z" fill="white"/>
<path d="M179.067 105.57C179.073 105.569 179.078 105.569 179.084 105.567C179.202 105.459 179.312 105.343 179.412 105.218L179.067 105.57Z" fill="#DBDBDB"/>
<path d="M180.22 110.76C181.069 110.213 181.544 108.702 181.263 107.437C180.984 106.18 179.996 105.335 179.084 105.567C178.82 105.835 178.491 106.032 178.13 106.138C177.769 106.244 177.387 106.257 177.019 106.175C176.456 106.03 175.837 105.656 175.348 106.081C175.069 106.398 174.873 106.78 174.779 107.192C174.598 107.748 174.417 108.303 174.236 108.858C174.15 109.057 174.128 109.277 174.172 109.49C174.207 109.574 174.263 109.649 174.335 109.706C174.406 109.763 174.492 109.801 174.582 109.816C175.668 110.136 176.753 110.456 177.839 110.776C178.63 111.009 179.484 111.233 180.22 110.76Z" fill="white"/>
<path d="M262.162 182.407C261.66 181.585 261.158 180.764 260.657 179.942C260.164 178.991 259.49 178.145 258.673 177.452C258.494 177.301 258.286 177.188 258.062 177.119C257.838 177.05 257.602 177.027 257.369 177.05C257.136 177.073 256.91 177.143 256.704 177.255C256.499 177.367 256.317 177.519 256.171 177.702L256.232 178.172C257.376 179.606 258.586 181.2 258.876 183.33C258.99 184.169 258.95 185.038 259.051 185.881C259.151 186.724 259.436 187.599 259.98 187.962C260.77 188.49 261.698 187.712 262.26 186.762C262.763 185.982 262.989 185.056 262.901 184.132C262.775 183.512 262.524 182.925 262.162 182.407Z" fill="white"/>
<path d="M284.492 151.034C284.637 150.082 284.782 149.131 284.927 148.179C285.163 147.134 285.192 146.053 285.014 144.997C284.973 144.766 284.887 144.545 284.76 144.349C284.633 144.152 284.468 143.982 284.275 143.85C284.081 143.718 283.863 143.625 283.634 143.578C283.404 143.532 283.168 143.531 282.938 143.577L282.683 143.975C282.634 145.81 282.533 147.808 281.383 149.624C280.93 150.34 280.34 150.979 279.874 151.689C279.408 152.399 279.063 153.251 279.245 153.88C279.51 154.792 280.721 154.794 281.762 154.43C282.649 154.157 283.418 153.593 283.946 152.83C284.249 152.275 284.435 151.664 284.492 151.034Z" fill="#DBDBDB"/>
<path d="M270.033 183.476C270.278 182.77 269.924 181.962 269.849 181.182C269.813 180.175 270.08 179.181 270.615 178.328C271.147 177.523 271.55 176.64 271.809 175.711C271.918 175.287 271.898 174.841 271.752 174.429C271.586 174.056 271.183 173.886 270.953 174.181L271.446 174.499C270.78 174.38 270.095 174.413 269.443 174.596C269.071 174.738 268.738 174.968 268.474 175.266C268.21 175.564 268.021 175.922 267.924 176.308C267.842 176.911 267.709 177.505 267.526 178.084C267.231 178.69 266.661 178.891 266.303 179.423C266.058 179.894 265.935 180.418 265.944 180.949C265.952 181.479 266.093 182 266.353 182.462C266.803 183.219 267.518 183.782 268.36 184.041C268.963 184.257 269.757 184.268 270.033 183.476Z" fill="white"/>
<path d="M284.049 187.705C284.267 188.272 284.56 188.808 284.918 189.299C285.589 189.974 286.501 189.559 287.315 189.395C288.054 189.278 288.81 189.364 289.505 189.642C290.199 189.92 290.805 190.381 291.258 190.976C290.942 189.402 290.253 187.926 289.249 186.673C288.244 185.42 286.954 184.426 285.486 183.775C283.567 182.993 281.546 182.917 279.55 182.847L279.205 182.935C280.084 185.492 282.842 185.435 284.049 187.705Z" fill="white"/>
<path d="M224.683 192.935L224.689 192.947C224.722 192.882 224.756 192.817 224.789 192.753L224.683 192.935Z" fill="#DBDBDB"/>
<path d="M222.557 197.05C222.093 197.892 221.695 198.768 221.364 199.671C220.927 201.133 220.637 202.635 220.5 204.155C220.392 205.019 220.358 206.123 220.9 206.544C221.055 206.647 221.243 206.69 221.428 206.665C221.613 206.64 221.782 206.548 221.904 206.407C222.205 206.089 222.451 205.723 222.633 205.325C223.697 203.492 224.523 201.531 225.091 199.49C225.609 197.339 225.605 194.808 224.689 192.946C223.978 194.314 223.268 195.682 222.557 197.05Z" fill="white"/>
<path d="M202.044 87.3953C202.381 87.7254 202.808 87.9495 203.272 88.04C203.736 88.1305 204.216 88.0834 204.653 87.9045C205.558 87.5087 206.388 86.9602 207.108 86.2829C207.703 85.8422 208.208 85.2911 208.596 84.6595C208.809 84.2821 208.946 83.8662 208.998 83.4358C209.05 83.0054 209.017 82.5689 208.9 82.1514C208.564 81.1682 207.711 80.8386 206.958 80.6154C205.754 80.2582 204.549 79.9009 203.344 79.5437L204.215 78.7581C203.319 78.2769 202.327 79.17 201.766 80.2758C201.407 80.9977 201.156 81.769 201.023 82.5644C200.723 84.2999 201.016 86.3666 202.044 87.3953Z" fill="#DBDBDB"/>
<path d="M223.314 80.2546C223.654 80.6289 224.123 80.86 224.627 80.901C225.13 80.942 225.631 80.7898 226.027 80.4753C226.367 80.2195 226.65 79.8949 226.857 79.5226C227.063 79.1502 227.189 78.7385 227.226 78.3143C227.312 77.3666 226.843 76.3133 226.174 76.2315L226.327 75.3442C225.038 75.1114 223.451 75.0648 222.76 76.6303C222.527 77.23 222.456 77.8804 222.553 78.5164C222.65 79.1524 222.913 79.7518 223.314 80.2546Z" fill="#DBDBDB"/>
<path d="M220.473 33.0708C212.915 32.2182 205.328 34.403 199.381 39.1443C193.434 43.8857 189.614 50.7953 188.761 58.3531C186.986 74.0915 195.278 108.268 210.395 122.415C217.512 95.3098 242.455 79.2323 245.755 64.7821C249.282 49.3415 236.211 34.8461 220.473 33.0708Z" fill="#3B50A2"/>
<path d="M215.246 68.0588C220.411 68.0588 224.598 63.8714 224.598 58.7061C224.598 53.5407 220.411 49.3534 215.246 49.3534C210.08 49.3534 205.893 53.5407 205.893 58.7061C205.893 63.8714 210.08 68.0588 215.246 68.0588Z" fill="white"/>
<path d="M205.412 135.901C208.795 135.901 211.537 133.158 211.537 129.775C211.537 126.392 208.795 123.649 205.412 123.649C202.028 123.649 199.286 126.392 199.286 129.775C199.286 133.158 202.028 135.901 205.412 135.901Z" fill="#3B50A2"/>
<path opacity="0.2" d="M222.984 52.0054C224.037 52.638 224.955 53.4717 225.685 54.459C226.416 55.4464 226.945 56.5679 227.242 57.7596C227.539 58.9513 227.598 60.1899 227.417 61.4046C227.235 62.6193 226.816 63.7863 226.184 64.8391C225.551 65.8918 224.717 66.8097 223.73 67.5402C222.743 68.2707 221.621 68.7996 220.429 69.0967C218.023 69.6967 215.476 69.3161 213.35 68.0385C215.518 68.5208 217.786 68.2158 219.75 67.1782C221.713 66.1405 223.243 64.438 224.066 62.3753C224.889 60.3126 224.951 58.0244 224.241 55.9203C223.531 53.8161 222.095 52.0333 220.191 50.891C221.176 51.1093 222.119 51.4857 222.984 52.0054Z" fill="#231F20"/>
<path opacity="0.2" d="M245.792 64.8123C242.491 79.2625 217.549 95.34 210.431 122.446C209.009 121.102 207.689 119.656 206.481 118.118C214.479 92.6391 237.869 77.1575 241.058 63.196C243.912 50.7002 235.895 38.8246 224.392 33.808C238.316 37.3084 249.023 50.6625 245.792 64.8123Z" fill="#231F20"/>
<path d="M132.828 69.5636C127.153 68.9234 121.455 70.564 116.989 74.1246C112.523 77.6852 109.655 82.8741 109.014 88.5498C107.681 100.369 113.908 126.034 125.26 136.658C130.605 116.303 149.336 104.229 151.815 93.3777C154.463 81.7823 144.647 70.8968 132.828 69.5636Z" fill="#3B50A2"/>
<path d="M128.903 95.8384C132.782 95.8384 135.927 92.6939 135.927 88.8149C135.927 84.9359 132.782 81.7913 128.903 81.7913C125.024 81.7913 121.88 84.9359 121.88 88.8149C121.88 92.6939 125.024 95.8384 128.903 95.8384Z" fill="white"/>
<path d="M121.518 146.785C124.059 146.785 126.118 144.726 126.118 142.185C126.118 139.644 124.059 137.585 121.518 137.585C118.977 137.585 116.918 139.644 116.918 142.185C116.918 144.726 118.977 146.785 121.518 146.785Z" fill="#3B50A2"/>
<path opacity="0.2" d="M134.714 83.7828C135.505 84.2579 136.194 84.884 136.743 85.6254C137.291 86.3669 137.689 87.2091 137.912 88.104C138.135 88.999 138.179 89.9291 138.043 90.8413C137.907 91.7535 137.592 92.6299 137.117 93.4204C136.642 94.211 136.016 94.9003 135.274 95.4489C134.533 95.9975 133.691 96.3947 132.796 96.6178C131.901 96.8409 130.971 96.8856 130.059 96.7492C129.146 96.6129 128.27 96.2982 127.479 95.8231C129.107 96.1853 130.811 95.9562 132.285 95.177C133.76 94.3978 134.909 93.1192 135.527 91.5702C136.145 90.0213 136.191 88.3029 135.658 86.7227C135.125 85.1426 134.047 83.8038 132.616 82.9459C133.356 83.1099 134.065 83.3925 134.714 83.7828Z" fill="#231F20"/>
<path opacity="0.2" d="M151.842 93.4004C149.364 104.252 130.633 116.326 125.288 136.681C124.22 135.672 123.228 134.586 122.321 133.431C128.327 114.297 145.892 102.671 148.287 92.1866C150.43 82.8026 144.41 73.8845 135.771 70.1172C146.228 72.7459 154.269 82.7743 151.842 93.4004Z" fill="#231F20"/>
<path d="M352.721 323.995H345.009L341.341 294.25L352.722 294.251L352.721 323.995Z" fill="#FFD5DB"/>
<path d="M356.869 338.638H351.397L350.421 333.472L347.919 338.638H333.406C332.71 338.638 332.033 338.415 331.472 338.003C330.912 337.591 330.498 337.01 330.291 336.346C330.084 335.682 330.095 334.969 330.322 334.311C330.549 333.654 330.98 333.086 331.552 332.691L343.142 324.686V319.464L355.332 320.191L356.869 338.638Z" fill="#2F2E41"/>
<path d="M322.852 323.995H315.14L311.472 294.25L322.853 294.251L322.852 323.995Z" fill="#FFD5DB"/>
<path d="M327 338.638H321.528L320.552 333.472L318.05 338.638H303.537C302.841 338.638 302.164 338.415 301.603 338.003C301.043 337.591 300.629 337.01 300.422 336.346C300.215 335.682 300.226 334.969 300.453 334.311C300.679 333.654 301.111 333.086 301.683 332.691L313.273 324.686V319.464L325.463 320.191L327 338.638Z" fill="#2F2E41"/>
<path d="M293.555 245.462C295.03 247.676 311.085 308.528 311.085 308.528L325.32 310.151L323.63 294.84L321.048 267.746L317.049 249.661C317.049 249.661 331.171 217.519 332.064 214.958L332.699 213.121L337.111 253.165C337.636 254.595 337.864 256.116 337.783 257.637C337.65 260.138 340.159 297.77 340.159 297.77L341.365 311.265L353.561 312.96L358.51 289.609C362.642 282.024 360.273 255.069 358.583 252.56C356.894 250.052 357.565 232.579 357.565 232.579C359.723 231.819 372.59 187.944 366.154 188.203C366.567 185.864 366.892 183.776 366.892 183.776L355.72 174.766L327.762 167.498L320.709 164.112C320.709 164.112 308.111 187.406 308.237 188.565C308.41 190.032 308.074 191.514 307.285 192.763L294.566 235.331C294.566 235.331 292.064 243.226 293.555 245.462Z" fill="#2F2E41"/>
<path d="M363.794 93.1382L359.347 83.6949L344.208 84.2767L339.271 94.101C339.271 94.101 325.159 110.956 324.703 116.436C324.128 123.329 328.903 157.111 324.128 154.921C324.128 154.921 312.873 168.132 319.533 168.132C326.193 168.132 356.319 187.044 358.296 189.171C360.273 191.298 369.097 192.677 368.357 188.237C367.617 183.797 363.794 159.784 363.794 159.784L374.144 122.027C377.123 113.875 378.05 104.731 371.317 99.2554L363.794 93.1382Z" fill="#3B50A2"/>
<path d="M307.721 65.3442C305.696 64.5404 303.533 64.1434 301.355 64.1757C299.177 64.2079 297.026 64.669 295.026 65.5324C293.026 66.3958 291.215 67.6447 289.698 69.2078C288.181 70.771 286.986 72.6176 286.182 74.6425C282.802 83.158 282.242 103.494 288.532 113.686C296.62 99.6362 312.984 94.4484 317.02 86.8834C321.332 78.7999 316.237 68.7244 307.721 65.3442Z" fill="#3B50A2"/>
<path d="M300.912 84.2703C303.9 84.2703 306.322 81.8481 306.322 78.8601C306.322 75.8721 303.9 73.4498 300.912 73.4498C297.924 73.4498 295.502 75.8721 295.502 78.8601C295.502 81.8481 297.924 84.2703 300.912 84.2703Z" fill="white"/>
<path d="M284.633 120.581C286.591 120.581 288.177 118.994 288.177 117.037C288.177 115.08 286.591 113.494 284.633 113.494C282.676 113.494 281.09 115.08 281.09 117.037C281.09 118.994 282.676 120.581 284.633 120.581Z" fill="#3B50A2"/>
<path opacity="0.2" d="M306.249 76.2946C307.24 77.3308 307.779 78.7181 307.748 80.1517C307.717 81.5853 307.118 82.9478 306.083 83.94C305.047 84.9322 303.661 85.4728 302.227 85.4431C300.793 85.4134 299.43 84.8158 298.437 83.7815C299.574 84.3798 300.886 84.554 302.14 84.2728C303.393 83.9917 304.506 83.2737 305.278 82.2472C306.051 81.2208 306.433 79.9529 306.356 78.6706C306.279 77.3883 305.748 76.1752 304.859 75.2484C305.375 75.5198 305.845 75.8731 306.249 76.2946Z" fill="#231F20"/>
<path opacity="0.2" d="M317.035 86.9058C313 94.4708 296.636 99.6586 288.548 113.708C287.958 112.743 287.441 111.735 287 110.693C295.333 97.6849 310.739 92.5941 314.638 85.2849C318.128 78.7431 315.456 70.8972 309.797 66.3506C317.038 70.4185 320.987 79.4981 317.035 86.9058Z" fill="#231F20"/>
<path d="M283.036 115.817C283.86 115.647 284.711 115.66 285.529 115.855C286.348 116.049 287.113 116.421 287.772 116.944C288.431 117.466 288.968 118.127 289.344 118.879C289.72 119.632 289.927 120.457 289.949 121.298L302.223 126.009L301.179 134.167L283.939 127.27C282.524 127.214 281.179 126.641 280.158 125.659C279.138 124.678 278.512 123.356 278.401 121.944C278.29 120.533 278.7 119.129 279.554 118C280.409 116.871 281.648 116.094 283.036 115.817Z" fill="#FFD5DB"/>
<path d="M368.798 99.0073C367.506 98.2183 366.071 97.6922 364.575 97.4592C363.079 97.2262 361.551 97.2909 360.08 97.6494C358.609 98.008 357.223 98.6535 356.002 99.5488C354.781 100.444 353.749 101.572 352.965 102.867L335.347 131.96L295.514 122.518L291.885 132.481L342.895 156.644L368.73 115.495C372.599 110.059 374.493 102.484 368.798 99.0073Z" fill="#3B50A2"/>
<path d="M369.456 63.3528C369.457 66.1568 368.77 68.9182 367.455 71.3947C366.139 73.8711 364.236 75.9867 361.912 77.5559C359.589 79.1251 356.915 80.0999 354.126 80.3946C351.338 80.6894 348.52 80.2951 345.919 79.2464C343.319 78.1977 341.015 76.5267 339.211 74.38C337.407 72.2333 336.158 69.6765 335.573 66.9342C334.987 64.1919 335.084 61.3479 335.855 58.6518C336.625 55.9557 338.046 53.49 339.992 51.4711L340.074 51.3889C340.211 51.245 340.348 51.1011 340.492 50.964C340.493 50.964 340.494 50.9639 340.495 50.9635C340.496 50.9632 340.496 50.9627 340.497 50.962C340.498 50.9614 340.498 50.9606 340.499 50.9598C340.499 50.959 340.499 50.9581 340.499 50.9572C340.677 50.7927 340.855 50.6283 341.04 50.4707C343.516 48.3005 346.564 46.8897 349.82 46.4073C353.077 45.9248 356.403 46.3911 359.402 47.7503C362.4 49.1096 364.943 51.3041 366.726 54.0713C368.509 56.8384 369.457 60.0608 369.456 63.3528Z" fill="#2F2E41"/>
<path d="M348.106 81.6808C356.039 81.6808 362.47 75.2496 362.47 67.3162C362.47 59.3829 356.039 52.9517 348.106 52.9517C340.172 52.9517 333.741 59.3829 333.741 67.3162C333.741 75.2496 340.172 81.6808 348.106 81.6808Z" fill="#FFD4DB"/>
<path d="M363.359 71.4128L360.979 70.9924C359.649 70.7507 358.425 70.1087 357.47 69.1523C356.515 68.1959 355.874 66.9706 355.635 65.6404L353.312 69.5325L353.211 69.5662C347.678 71.4033 341.921 70.8538 335.615 67.8887C333.812 67.0335 332.063 66.0691 330.377 65.0009L330.253 64.9233L330.242 64.7771C329.921 60.1042 330.969 56.2003 333.196 53.7846C334.051 52.8758 335.088 52.1578 336.239 51.6777C337.391 51.1977 338.631 50.9664 339.878 50.999C339.967 50.9758 340.049 50.9308 340.116 50.868C340.148 50.8445 340.18 50.8212 340.211 50.799V50.7749L340.376 50.6972C340.731 50.5306 341.092 50.371 341.453 50.2252C344.296 49.1249 347.391 48.8489 350.383 49.4288C353.375 50.0088 356.143 51.4213 358.369 53.5039C362.793 57.7281 364.823 64.817 363.419 71.1444L363.359 71.4128Z" fill="#2F2E41"/>
<path d="M393.657 83.6515C388.769 81.1284 395.056 71.9713 393.793 66.6174C392.529 61.2634 383.432 59.5414 382.853 54.0711C382.273 48.6007 380.91 42.9587 377.3 38.8077C374.993 36.1553 371.594 34.1972 368.095 34.5294C366.911 34.6418 365.765 35.0081 364.736 35.6032C363.706 36.1984 362.817 37.0085 362.128 37.9784C361.44 38.9483 360.969 40.0551 360.746 41.2235C360.524 42.3919 360.557 43.5945 360.841 44.7492C359.845 43.3375 357.267 43.6435 356.628 45.2493C356.061 46.6768 357.314 48.406 358.79 48.5323C360.72 50.9161 362.93 53.4459 365.954 53.9268C366.436 54.0374 366.937 54.0372 367.418 53.926C367.9 53.8148 368.35 53.5956 368.735 53.285C369.446 52.6018 369.502 51.2359 368.658 50.7253C372.458 52.2349 374.686 56.3439 375.25 60.394C375.814 64.4442 375.034 68.5421 374.52 72.5988C374.006 76.6556 373.784 80.9231 375.375 84.6903C377.254 89.1413 381.581 92.3314 386.303 93.3545C391.025 94.3775 396.054 93.3776 400.328 91.1249C404.602 88.872 408.166 85.4329 411.078 81.5772C406.062 85.1387 399.123 86.4729 393.657 83.6515Z" fill="#2F2E41"/>
<path d="M362.748 71.0135C362.748 71.0135 358.493 55.1302 340.252 51.4642C340.232 51.4575 340.163 51.43 340.074 51.389C340.019 51.3547 339.951 51.3204 339.882 51.2862C340.088 51.1696 340.287 51.0669 340.492 50.9641L340.495 50.9636L340.497 50.9621L340.499 50.9598L340.499 50.9572C340.677 50.7928 340.855 50.6283 341.04 50.4707L341.561 50.4913C341.561 50.4913 359.863 47.5928 362.748 71.0135Z" fill="#FD6584"/>
<path opacity="0.2" d="M353.221 121.979L342.919 133.914L325.897 128.888L344.454 137.439L353.221 121.979Z" fill="black"/>
<path d="M415.057 339.537L256.665 339.714C256.483 339.713 256.31 339.641 256.182 339.513C256.054 339.385 255.983 339.211 255.983 339.03C255.983 338.849 256.054 338.675 256.182 338.547C256.31 338.419 256.483 338.346 256.665 338.346L415.057 338.169C415.238 338.169 415.412 338.241 415.54 338.37C415.668 338.498 415.741 338.672 415.741 338.853C415.741 339.035 415.668 339.209 415.54 339.337C415.412 339.465 415.238 339.537 415.057 339.537Z" fill="#CACACA"/>
<path d="M422.009 233.25C414.592 233.25 406.463 232.969 397.622 232.409C351.891 229.505 292.656 219.408 230.828 203.98C169.001 188.552 111.967 169.634 70.2333 150.713C49.9036 141.496 34.3007 132.771 23.8585 124.78C12.8029 116.321 7.96701 108.947 9.48463 102.865C12.4417 91.0157 38.6248 88.4233 60.069 88.3353L60.0763 90.0585C30.6277 90.1794 13.2545 94.8759 11.1568 103.282C8.48477 113.989 30.2768 130.705 70.9448 149.144C112.587 168.023 169.516 186.905 231.246 202.309C292.975 217.712 352.101 227.791 397.731 230.689C442.293 233.519 469.384 229.002 472.056 218.294C474.274 209.405 459.65 196.309 430.877 181.419L431.669 179.888C452.576 190.708 476.844 206.226 473.728 218.712C472.21 224.794 464.477 229.031 450.743 231.304C442.914 232.6 433.299 233.25 422.009 233.25Z" fill="#3B50A2"/>
</g>
<defs>
<clipPath id="clip0_205_88">
<rect width="474" height="339.714" fill="white"/>
</clipPath>
</defs>
</svg>
