<svg width="169" height="55" viewBox="0 0 169 55" fill="none" xmlns="http://www.w3.org/2000/svg">
<rect width="168.143" height="55" rx="17.5" fill="#080809"/>
<g clip-path="url(#clip0_207_129)">
<path d="M44.7974 26.7171L29.0147 41.9147C28.2756 41.4096 27.8368 40.5695 27.8446 39.6743V13.7598C27.8368 12.8647 28.2756 12.0245 29.0147 11.5194L44.7974 26.7171Z" fill="#2196F3"/>
<path d="M50.32 21.4086L44.7975 26.7171L29.0148 11.5194C29.0742 11.4733 29.1362 11.4304 29.2003 11.391C30.0344 10.8854 31.0763 10.8691 31.9259 11.3482L50.32 21.4086Z" fill="#4CAF50"/>
<path d="M57.0127 26.717C57.023 27.7276 56.4739 28.661 55.5857 29.143L50.32 32.0255L44.7975 26.717L50.32 21.4086L55.5857 24.2911C56.4739 24.7731 57.023 25.7065 57.0127 26.717Z" fill="#F0BB1F"/>
<path d="M50.32 32.0255L31.9259 42.0859C31.0744 42.5576 30.0365 42.5413 29.2003 42.0431C29.1362 42.0037 29.0742 41.9608 29.0148 41.9147L44.7975 26.717L50.32 32.0255Z" fill="#F15A2B"/>
</g>
<path d="M75.4662 18.6686H71.0536V20.4286H73.4045C73.0902 21.2709 72.3234 21.7863 71.1542 21.7863C69.4445 21.7863 68.3885 20.6926 68.3885 19.1966C68.3885 17.6503 69.4948 16.5566 70.9782 16.5566C71.9714 16.5566 72.7634 17.0092 73.1279 17.5875L74.8376 16.6069C74.0959 15.4252 72.6754 14.5955 70.9908 14.5955C68.4011 14.5955 66.3771 16.632 66.3771 19.184C66.3771 21.7109 68.3634 23.7475 71.1291 23.7475C73.5931 23.7475 75.4662 22.1132 75.4662 19.4229V18.6686Z" fill="white"/>
<path d="M77.9831 21.6355V20.0766H81.1259V18.1657H77.9831V16.7075H81.4402V14.7715H75.9716V23.5715H81.5031V21.6355H77.9831Z" fill="white"/>
<path d="M87.9179 14.7715H81.3808V16.7075H83.6436V23.5715H85.6551V16.7075H87.9179V14.7715Z" fill="white"/>
<path d="M90.6841 14.7715V23.5715H92.6956V14.7715H90.6841Z" fill="white"/>
<path d="M99.4876 14.7715H92.9504V16.7075H95.2133V23.5715H97.2247V16.7075H99.4876V14.7715Z" fill="white"/>
<path d="M106.453 23.7475C108.979 23.7475 111.029 21.7612 111.029 19.1715C111.029 16.5817 108.979 14.5955 106.453 14.5955C103.926 14.5955 101.877 16.5817 101.877 19.1715C101.877 21.7612 103.926 23.7475 106.453 23.7475ZM106.453 21.7863C105.019 21.7863 103.888 20.7429 103.888 19.1715C103.888 17.6 105.019 16.5566 106.453 16.5566C107.886 16.5566 109.017 17.6 109.017 19.1715C109.017 20.7429 107.886 21.7863 106.453 21.7863Z" fill="white"/>
<path d="M116.435 14.7715V19.5486L113.041 14.7715H111.533V23.5715H113.544V18.7943L116.938 23.5715H118.447V14.7715H116.435Z" fill="white"/>
<path d="M75.4662 33.616V33.9555C75.4662 35.0534 75.0765 35.9795 74.2971 36.7337C73.5176 37.4796 72.491 37.8526 71.2171 37.8526C69.8761 37.8526 68.7698 37.4168 67.8982 36.5452C67.0266 35.6652 66.5908 34.5882 66.5908 33.3143C66.5908 32.0404 67.0224 30.9676 67.8856 30.096C68.7489 29.216 69.8426 28.776 71.1668 28.776C71.9714 28.776 72.7089 28.9688 73.3794 29.3543C74.0582 29.7398 74.582 30.2553 74.9508 30.9006L74.3599 31.2526C74.0666 30.6995 73.6308 30.2553 73.0525 29.92C72.4826 29.5848 71.854 29.4172 71.1668 29.4172C70.027 29.4172 69.0883 29.7943 68.3508 30.5486C67.6216 31.2945 67.2571 32.2164 67.2571 33.3143C67.2571 34.4122 67.6258 35.3383 68.3634 36.0926C69.1009 36.8385 70.0521 37.2115 71.2171 37.2115C72.2479 37.2115 73.0818 36.9307 73.7188 36.3692C74.3557 35.8076 74.7119 35.0995 74.7874 34.2446H71.0536V33.616H75.4662Z" fill="white"/>
<path d="M84.3898 36.5326C83.5098 37.4126 82.437 37.8526 81.1715 37.8526C79.906 37.8526 78.8332 37.4126 77.9532 36.5326C77.0732 35.6442 76.6332 34.5715 76.6332 33.3143C76.6332 32.0572 77.0732 30.9886 77.9532 30.1086C78.8332 29.2202 79.906 28.776 81.1715 28.776C82.437 28.776 83.5098 29.2202 84.3898 30.1086C85.2698 30.9886 85.7098 32.0572 85.7098 33.3143C85.7098 34.5715 85.2698 35.6442 84.3898 36.5326ZM78.4183 36.08C79.1726 36.8343 80.0903 37.2115 81.1715 37.2115C82.2526 37.2115 83.1662 36.8343 83.9121 36.08C84.6663 35.3174 85.0435 34.3955 85.0435 33.3143C85.0435 32.2332 84.6663 31.3155 83.9121 30.5612C83.1662 29.7985 82.2526 29.4172 81.1715 29.4172C80.0903 29.4172 79.1726 29.7985 78.4183 30.5612C77.6724 31.3155 77.2995 32.2332 77.2995 33.3143C77.2995 34.3955 77.6724 35.3174 78.4183 36.08Z" fill="white"/>
<path d="M94.6532 36.5326C93.7732 37.4126 92.7004 37.8526 91.4349 37.8526C90.1694 37.8526 89.0966 37.4126 88.2166 36.5326C87.3366 35.6442 86.8966 34.5715 86.8966 33.3143C86.8966 32.0572 87.3366 30.9886 88.2166 30.1086C89.0966 29.2202 90.1694 28.776 91.4349 28.776C92.7004 28.776 93.7732 29.2202 94.6532 30.1086C95.5332 30.9886 95.9732 32.0572 95.9732 33.3143C95.9732 34.5715 95.5332 35.6442 94.6532 36.5326ZM88.6817 36.08C89.436 36.8343 90.3537 37.2115 91.4349 37.2115C92.516 37.2115 93.4295 36.8343 94.1754 36.08C94.9297 35.3174 95.3069 34.3955 95.3069 33.3143C95.3069 32.2332 94.9297 31.3155 94.1754 30.5612C93.4295 29.7985 92.516 29.4172 91.4349 29.4172C90.3537 29.4172 89.436 29.7985 88.6817 30.5612C87.9358 31.3155 87.5629 32.2332 87.5629 33.3143C87.5629 34.3955 87.9358 35.3174 88.6817 36.08Z" fill="white"/>
<path d="M106.035 33.616V33.9555C106.035 35.0534 105.646 35.9795 104.866 36.7337C104.087 37.4796 103.06 37.8526 101.786 37.8526C100.445 37.8526 99.339 37.4168 98.4674 36.5452C97.5958 35.6652 97.16 34.5882 97.16 33.3143C97.16 32.0404 97.5916 30.9676 98.4548 30.096C99.3181 29.216 100.412 28.776 101.736 28.776C102.541 28.776 103.278 28.9688 103.949 29.3543C104.627 29.7398 105.151 30.2553 105.52 30.9006L104.929 31.2526C104.636 30.6995 104.2 30.2553 103.622 29.92C103.052 29.5848 102.423 29.4172 101.736 29.4172C100.596 29.4172 99.6575 29.7943 98.92 30.5486C98.1908 31.2945 97.8263 32.2164 97.8263 33.3143C97.8263 34.4122 98.195 35.3383 98.9326 36.0926C99.6701 36.8385 100.621 37.2115 101.786 37.2115C102.817 37.2115 103.651 36.9307 104.288 36.3692C104.925 35.8076 105.281 35.0995 105.357 34.2446H101.623V33.616H106.035Z" fill="white"/>
<path d="M108.372 37.0857H112.52V37.7143H107.705V28.9143H108.372V37.0857Z" fill="white"/>
<path d="M114.571 37.0857H118.971V37.7143H113.905V28.9143H118.908V29.5429H114.571V32.9623H118.594V33.5909H114.571V37.0857Z" fill="white"/>
<path d="M126.952 28.9143C127.74 28.9143 128.393 29.1741 128.913 29.6937C129.432 30.2134 129.692 30.8629 129.692 31.6423C129.692 32.4217 129.432 33.0713 128.913 33.5909C128.393 34.1021 127.74 34.3577 126.952 34.3577H124.626V37.7143H123.96V28.9143H126.952ZM126.952 33.7292C127.555 33.7292 128.05 33.5322 128.435 33.1383C128.829 32.7444 129.026 32.2457 129.026 31.6423C129.026 31.0305 128.829 30.5276 128.435 30.1337C128.05 29.7398 127.555 29.5429 126.952 29.5429H124.626V33.7292H126.952Z" fill="white"/>
<path d="M132.004 37.0857H136.153V37.7143H131.338V28.9143H132.004V37.0857Z" fill="white"/>
<path d="M143.705 37.7143L142.85 35.4766H138.437L137.582 37.7143H136.878L140.298 28.9143H141.002L144.409 37.7143H143.705ZM138.689 34.848H142.611L140.65 29.7315L138.689 34.848Z" fill="white"/>
<path d="M150.67 28.9143L147.464 34.0937V37.7143H146.798V34.0937L143.592 28.9143H144.346L147.137 33.4526L149.916 28.9143H150.67Z" fill="white"/>
<defs>
<clipPath id="clip0_207_129">
<rect width="31.4286" height="31.4286" fill="white" transform="translate(26.7144 11)"/>
</clipPath>
</defs>
</svg>
