<svg width="35" height="35" viewBox="0 0 35 35" fill="none" xmlns="http://www.w3.org/2000/svg">
<path d="M31.7998 14.6439H30.6251V14.5834H17.5001V20.4167H25.7419C24.5395 23.8124 21.3085 26.25 17.5001 26.25C12.6679 26.25 8.75008 22.3322 8.75008 17.5C8.75008 12.6678 12.6679 8.75002 17.5001 8.75002C19.7306 8.75002 21.7599 9.59148 23.305 10.966L27.4299 6.84106C24.8253 4.41367 21.3413 2.91669 17.5001 2.91669C9.44644 2.91669 2.91675 9.44637 2.91675 17.5C2.91675 25.5537 9.44644 32.0834 17.5001 32.0834C25.5537 32.0834 32.0834 25.5537 32.0834 17.5C32.0834 16.5222 31.9828 15.5677 31.7998 14.6439Z" fill="#FFC107"/>
<path d="M4.59717 10.7122L9.38852 14.2261C10.685 11.0163 13.8248 8.75002 17.499 8.75002C19.7295 8.75002 21.7588 9.59148 23.3039 10.966L27.4288 6.84106C24.8242 4.41367 21.3402 2.91669 17.499 2.91669C11.8976 2.91669 7.03988 6.07908 4.59717 10.7122Z" fill="#FF3D00"/>
<path d="M17.5002 32.0838C21.2671 32.0838 24.6898 30.6422 27.2776 28.2979L22.7641 24.4786C21.2506 25.6295 19.4014 26.252 17.5002 26.2504C13.707 26.2504 10.4863 23.8318 9.27296 20.4565L4.51733 24.1205C6.93088 28.8434 11.8323 32.0838 17.5002 32.0838Z" fill="#4CAF50"/>
<path d="M31.7997 14.6438H30.625V14.5833H17.5V20.4166H25.7418C25.1666 22.0328 24.1306 23.445 22.7617 24.4788L22.7639 24.4774L27.2774 28.2968C26.958 28.587 32.0833 24.7916 32.0833 17.5C32.0833 16.5222 31.9827 15.5677 31.7997 14.6438Z" fill="#1976D2"/>
</svg>
