<svg width="158" height="55" viewBox="0 0 158 55" fill="none" xmlns="http://www.w3.org/2000/svg">
<rect x="0.571411" width="157.143" height="55" rx="17.5" fill="#080809"/>
<path d="M34.8117 37.714C31.0697 37.6925 27.9744 30.0538 27.9744 26.1636C27.9744 19.8089 32.7414 18.4177 34.5786 18.4177C35.4066 18.4177 36.2907 18.7428 37.0704 19.0305C37.6157 19.2312 38.1797 19.4384 38.4933 19.4384C38.681 19.4384 39.1235 19.2622 39.5141 19.1075C40.3471 18.7759 41.3836 18.3638 42.5907 18.3638C42.5928 18.3638 42.5957 18.3638 42.5978 18.3638C43.4991 18.3638 46.232 18.5616 47.8749 21.0289L48.2598 21.6072L47.7059 22.0252C46.9146 22.6222 45.4709 23.7113 45.4709 25.8687C45.4709 28.4238 47.106 29.4064 47.8915 29.879C48.2382 30.0876 48.5972 30.3027 48.5972 30.7731C48.5972 31.0803 46.1456 37.6759 42.5856 37.6759C41.7145 37.6759 41.0987 37.4141 40.5556 37.1832C40.0061 36.9494 39.532 36.748 38.7486 36.748C38.3515 36.748 37.8494 36.9357 37.3178 37.135C36.5914 37.4061 35.7691 37.714 34.8362 37.714H34.8117Z" fill="white"/>
<path d="M42.9678 12.5714C43.0605 15.9144 40.6698 18.2337 38.2818 18.0882C37.8883 15.4204 40.6695 12.5714 42.9678 12.5714Z" fill="white"/>
<path d="M61.9044 20.4285H63.5544L61.3104 13.8285H59.3869L57.1429 20.4285H58.7929L59.1229 19.3914H61.5744L61.9044 20.4285ZM59.5755 17.9771L60.3487 15.5539L61.1218 17.9771H59.5755Z" fill="white"/>
<path d="M66.8936 15.7142L65.913 18.7031L64.9324 15.7142H63.3673L65.1116 20.4285H66.7144L68.4587 15.7142H66.8936Z" fill="white"/>
<path d="M72.2161 15.7142V16.1574C71.9049 15.7991 71.4429 15.5822 70.8112 15.5822C69.5761 15.5822 68.5578 16.6665 68.5578 18.0714C68.5578 19.4762 69.5761 20.5605 70.8112 20.5605C71.4429 20.5605 71.9049 20.3437 72.2161 19.9854V20.4285H73.6303V15.7142H72.2161ZM71.0941 19.2217C70.4435 19.2217 69.9721 18.7785 69.9721 18.0714C69.9721 17.3642 70.4435 16.9211 71.0941 16.9211C71.7446 16.9211 72.2161 17.3642 72.2161 18.0714C72.2161 18.7785 71.7446 19.2217 71.0941 19.2217Z" fill="white"/>
<path d="M74.6679 20.4285H76.0822V13.5457H74.6679V20.4285Z" fill="white"/>
<path d="M77.8243 15.2994C78.2863 15.2994 78.6729 14.9128 78.6729 14.4508C78.6729 13.9888 78.2863 13.6022 77.8243 13.6022C77.3623 13.6022 76.9757 13.9888 76.9757 14.4508C76.9757 14.9128 77.3623 15.2994 77.8243 15.2994ZM77.1172 20.4285H78.5314V15.7142H77.1172V20.4285Z" fill="white"/>
<path d="M82.3855 15.5822C81.7538 15.5822 81.2918 15.7991 80.9807 16.1574V13.8285H79.5664V20.4285H80.9807V19.9854C81.2918 20.3437 81.7538 20.5605 82.3855 20.5605C83.6207 20.5605 84.6389 19.4762 84.6389 18.0714C84.6389 16.6665 83.6207 15.5822 82.3855 15.5822ZM82.1027 19.2217C81.4521 19.2217 80.9807 18.7785 80.9807 18.0714C80.9807 17.3642 81.4521 16.9211 82.1027 16.9211C82.7532 16.9211 83.2247 17.3642 83.2247 18.0714C83.2247 18.7785 82.7532 19.2217 82.1027 19.2217Z" fill="white"/>
<path d="M85.4408 20.4285H86.8551V13.5457H85.4408V20.4285Z" fill="white"/>
<path d="M89.1535 18.6371H92.5006C92.5383 18.4579 92.5572 18.2694 92.5572 18.0714C92.5572 16.6477 91.5389 15.5822 90.1623 15.5822C88.6726 15.5822 87.6543 16.6665 87.6543 18.0714C87.6543 19.4762 88.6537 20.5605 90.266 20.5605C91.1617 20.5605 91.8595 20.2305 92.3215 19.5894L91.19 18.9388C91.0015 19.1462 90.6715 19.2971 90.2849 19.2971C89.7663 19.2971 89.3326 19.1274 89.1535 18.6371ZM89.1252 17.5811C89.2572 17.1002 89.6155 16.8362 90.1529 16.8362C90.5772 16.8362 91.0015 17.0342 91.1523 17.5811H89.1252Z" fill="white"/>
<path d="M97.9793 20.5605C99.3653 20.5605 100.478 19.4762 100.478 18.0714C100.478 16.6665 99.3653 15.5822 97.9793 15.5822C96.5933 15.5822 95.4808 16.6665 95.4808 18.0714C95.4808 19.4762 96.5933 20.5605 97.9793 20.5605ZM97.9793 19.1839C97.3665 19.1839 96.8951 18.7408 96.8951 18.0714C96.8951 17.4019 97.3665 16.9588 97.9793 16.9588C98.5922 16.9588 99.0636 17.4019 99.0636 18.0714C99.0636 18.7408 98.5922 19.1839 97.9793 19.1839Z" fill="white"/>
<path d="M104.04 15.5822C103.418 15.5822 102.947 15.8085 102.692 16.1574V15.7142H101.278V20.4285H102.692V17.8545C102.692 17.1851 103.05 16.8834 103.569 16.8834C104.022 16.8834 104.389 17.1568 104.389 17.7414V20.4285H105.804V17.5339C105.804 16.2611 104.993 15.5822 104.04 15.5822Z" fill="white"/>
<path d="M111.895 17.0719V15.7142H110.923V14.3942L109.509 14.8185V15.7142H108.755V17.0719H109.509V18.7408C109.509 20.0608 110.047 20.6171 111.895 20.4285V19.1462C111.272 19.1839 110.923 19.1462 110.923 18.7408V17.0719H111.895Z" fill="white"/>
<path d="M115.458 15.5822C114.836 15.5822 114.364 15.8085 114.11 16.1574V13.8285H112.695V20.4285H114.11V17.8545C114.11 17.1851 114.468 16.8834 114.986 16.8834C115.439 16.8834 115.807 17.1568 115.807 17.7414V20.4285H117.221V17.5339C117.221 16.2611 116.41 15.5822 115.458 15.5822Z" fill="white"/>
<path d="M119.456 18.6371H122.803C122.84 18.4579 122.859 18.2694 122.859 18.0714C122.859 16.6477 121.841 15.5822 120.464 15.5822C118.975 15.5822 117.956 16.6665 117.956 18.0714C117.956 19.4762 118.956 20.5605 120.568 20.5605C121.464 20.5605 122.162 20.2305 122.624 19.5894L121.492 18.9388C121.304 19.1462 120.974 19.2971 120.587 19.2971C120.068 19.2971 119.635 19.1274 119.456 18.6371ZM119.427 17.5811C119.559 17.1002 119.918 16.8362 120.455 16.8362C120.879 16.8362 121.304 17.0342 121.454 17.5811H119.427Z" fill="white"/>
<path d="M65.0787 37.7142H67.8287L64.0887 26.7142H60.8829L57.1429 37.7142H59.8929L60.4429 35.9857H64.5287L65.0787 37.7142ZM61.1972 33.6285L62.4858 29.5899L63.7744 33.6285H61.1972Z" fill="white"/>
<path d="M73.3866 29.6371C72.3337 29.6371 71.5637 29.9985 71.0452 30.5957V29.8571H68.688V40.8571H71.0452V36.9757C71.5637 37.5728 72.3337 37.9342 73.3866 37.9342C75.4452 37.9342 77.1423 36.1271 77.1423 33.7857C77.1423 31.4442 75.4452 29.6371 73.3866 29.6371ZM72.9152 35.7028C71.8309 35.7028 71.0452 34.9642 71.0452 33.7857C71.0452 32.6071 71.8309 31.8685 72.9152 31.8685C73.9995 31.8685 74.7852 32.6071 74.7852 33.7857C74.7852 34.9642 73.9995 35.7028 72.9152 35.7028Z" fill="white"/>
<path d="M83.1773 29.6371C82.1245 29.6371 81.3545 29.9985 80.8359 30.5957V29.8571H78.4788V40.8571H80.8359V36.9757C81.3545 37.5728 82.1245 37.9342 83.1773 37.9342C85.2359 37.9342 86.9331 36.1271 86.9331 33.7857C86.9331 31.4442 85.2359 29.6371 83.1773 29.6371ZM82.7059 35.7028C81.6216 35.7028 80.8359 34.9642 80.8359 33.7857C80.8359 32.6071 81.6216 31.8685 82.7059 31.8685C83.7902 31.8685 84.5759 32.6071 84.5759 33.7857C84.5759 34.9642 83.7902 35.7028 82.7059 35.7028Z" fill="white"/>
<path d="M88.2695 37.7142H90.6267V26.2428H88.2695V37.7142Z" fill="white"/>
<path d="M94.4573 34.7285H100.036C100.099 34.4299 100.13 34.1157 100.13 33.7857C100.13 31.4128 98.433 29.6371 96.1387 29.6371C93.6558 29.6371 91.9587 31.4442 91.9587 33.7857C91.9587 36.1271 93.6244 37.9342 96.3115 37.9342C97.8044 37.9342 98.9673 37.3842 99.7373 36.3157L97.8515 35.2314C97.5373 35.5771 96.9873 35.8285 96.343 35.8285C95.4787 35.8285 94.7558 35.5457 94.4573 34.7285ZM94.4101 32.9685C94.6301 32.1671 95.2273 31.7271 96.123 31.7271C96.8301 31.7271 97.5373 32.0571 97.7887 32.9685H94.4101Z" fill="white"/>
<path d="M109.324 37.9342C111.713 37.9342 113.41 36.6771 113.41 34.5557C113.41 32.2299 111.54 31.6485 109.874 31.1457C108.161 30.6271 107.894 30.2814 107.894 29.7785C107.894 29.3385 108.287 28.9457 109.073 28.9457C110.078 28.9457 110.597 29.4328 110.974 30.2185L113.096 28.9771C112.294 27.3585 110.88 26.4942 109.073 26.4942C107.171 26.4942 105.38 27.7199 105.38 29.8414C105.38 31.9471 106.983 32.7328 108.617 33.1885C110.267 33.6442 110.896 33.9114 110.896 34.5871C110.896 35.0114 110.597 35.4828 109.403 35.4828C108.161 35.4828 107.486 34.8699 107.093 33.9585L104.924 35.2157C105.537 36.8342 107.014 37.9342 109.324 37.9342Z" fill="white"/>
<path d="M118.962 32.1199V29.8571H117.343V27.6571L114.986 28.3642V29.8571H113.729V32.1199H114.986V34.9014C114.986 37.1014 115.882 38.0285 118.962 37.7142V35.5771C117.925 35.6399 117.343 35.5771 117.343 34.9014V32.1199H118.962Z" fill="white"/>
<path d="M123.915 37.9342C126.225 37.9342 128.079 36.1271 128.079 33.7857C128.079 31.4442 126.225 29.6371 123.915 29.6371C121.605 29.6371 119.75 31.4442 119.75 33.7857C119.75 36.1271 121.605 37.9342 123.915 37.9342ZM123.915 35.6399C122.893 35.6399 122.107 34.9014 122.107 33.7857C122.107 32.6699 122.893 31.9314 123.915 31.9314C124.936 31.9314 125.722 32.6699 125.722 33.7857C125.722 34.9014 124.936 35.6399 123.915 35.6399Z" fill="white"/>
<path d="M131.769 31.2557V29.8571H129.412V37.7142H131.769V34.1628C131.769 32.6071 133.152 32.2142 134.126 32.3714V29.6999C133.136 29.6999 132.084 30.2028 131.769 31.2557Z" fill="white"/>
<path d="M137.104 34.7285H142.682C142.745 34.4299 142.777 34.1157 142.777 33.7857C142.777 31.4128 141.079 29.6371 138.785 29.6371C136.302 29.6371 134.605 31.4442 134.605 33.7857C134.605 36.1271 136.271 37.9342 138.958 37.9342C140.451 37.9342 141.614 37.3842 142.384 36.3157L140.498 35.2314C140.184 35.5771 139.634 35.8285 138.989 35.8285C138.125 35.8285 137.402 35.5457 137.104 34.7285ZM137.057 32.9685C137.277 32.1671 137.874 31.7271 138.769 31.7271C139.477 31.7271 140.184 32.0571 140.435 32.9685H137.057Z" fill="white"/>
</svg>
